<svg width="164.125" height="62.251" viewBox="0 0 164.125 62.251" xmlns="http://www.w3.org/2000/svg"><g id="svgGroup" stroke-linecap="round" fill-rule="evenodd" font-size="9pt" stroke="#ffffff" stroke-width="0.2mm" fill="#000" style="stroke:#ffffff;stroke-width:0.2mm;fill:#000"><path d="M 108.125 60.876 L 108.125 61.376 L 106.375 62.251 L 105.625 61.876 Q 95 48.751 87.125 36.376 L 73.5 36.376 L 73.5 61.501 L 71 61.501 L 71 0.126 L 85.875 0.001 Q 94.875 0.001 99.75 4.376 A 14.188 14.188 0 0 1 104.094 11.92 A 21.768 21.768 0 0 1 104.625 16.876 A 21.047 21.047 0 0 1 103.745 23.079 A 17.548 17.548 0 0 1 100.75 28.813 A 19.44 19.44 0 0 1 94.076 34.178 A 26.391 26.391 0 0 1 89.75 35.876 A 232.107 232.107 0 0 0 101.819 53.009 A 275.105 275.105 0 0 0 108.125 60.876 Z M 28.5 0.126 L 52.25 61.501 L 49.375 61.501 L 48.125 57.126 L 42 41.376 L 11 41.376 L 4.375 57.126 L 2.875 61.501 L 0 61.501 L 25.875 0.126 L 28.5 0.126 Z M 163.875 0.126 L 164.125 0.626 L 163.75 2.626 L 153.375 2.501 L 143.875 2.501 L 143.875 61.501 L 141.375 61.501 L 141.375 2.501 L 132.125 2.501 L 121.375 2.626 L 121 2.126 L 121.375 0.126 L 163.875 0.126 Z M 73.5 2.376 L 73.5 34.001 L 87.875 34.126 A 23.492 23.492 0 0 0 92.75 32.427 A 16.381 16.381 0 0 0 98.375 28.063 A 15.906 15.906 0 0 0 101.766 20.224 A 21.487 21.487 0 0 0 102 17.001 A 18.928 18.928 0 0 0 101.538 12.689 Q 100.781 9.451 98.783 7.182 A 11.772 11.772 0 0 0 98 6.376 A 13.781 13.781 0 0 0 93.184 3.502 Q 91.168 2.774 88.711 2.456 A 29.488 29.488 0 0 0 86.375 2.251 L 73.5 2.376 Z M 41 39.001 L 27.25 3.876 L 26.875 3.876 L 12 39.001 L 41 39.001 Z" vector-effect="non-scaling-stroke"/></g></svg>